<svg width="144" height="144" viewBox="0 0 144 144" fill="none" xmlns="http://www.w3.org/2000/svg">
<path opacity="0.2" d="M71.7336 118.515C66.6616 118.515 61.8682 116.82 58.0057 113.799C54.0986 116.848 49.2662 118.515 44.3057 118.515C32.0047 118.515 22 108.51 22 96.2144V47.3001C22 35.0047 32.0047 25 44.3057 25C49.2662 25 54.093 26.6665 58.0001 29.7153C61.8627 26.6944 66.6616 25 71.728 25C76.7945 25 82.1173 26.8839 86.147 30.3061L114.946 54.7632C119.946 59.0103 122.81 65.2027 122.81 71.7573C122.81 78.3119 119.946 84.5098 114.946 88.7513L86.147 113.208C82.1173 116.631 77.0007 118.515 71.728 118.515H71.7336Z" stroke="#33998C" stroke-miterlimit="10"/>
<path opacity="0.4" d="M71.7327 111.826C66.1981 111.826 61.3267 108.934 58.5511 104.581L54.3931 108.109C51.5729 110.505 47.989 111.821 44.3048 111.821C35.6936 111.821 28.6875 104.82 28.6875 96.2089V47.3002C28.6875 38.6945 35.6936 31.6885 44.3048 31.6885C47.989 31.6885 51.5729 33.0094 54.3931 35.4061L58.5455 38.9342C61.3211 34.5812 66.1925 31.6885 71.7271 31.6885C75.4113 31.6885 78.9952 33.0094 81.8154 35.4061L110.614 59.8632C114.115 62.834 116.121 67.1703 116.121 71.7574C116.121 76.3445 114.115 80.6808 110.614 83.6515L81.8154 108.109C78.9952 110.505 75.4113 111.826 71.7271 111.826H71.7327Z" stroke="#33998C" stroke-miterlimit="10"/>
<path opacity="0.6" d="M44.3118 105.138C39.3903 105.138 35.3828 101.136 35.3828 96.2143V47.3001C35.3828 42.3785 39.3903 38.3767 44.3118 38.3767C46.4131 38.3767 48.4586 39.1291 50.0749 40.5002L62.8107 51.3131V47.2945C62.8107 42.373 66.8181 38.3711 71.7397 38.3711C73.8409 38.3711 75.8865 39.1235 77.5028 40.4947L106.302 64.9518C108.303 66.6517 109.445 69.1264 109.445 71.7516C109.445 74.3768 108.297 76.8515 106.302 78.5515L77.5028 103.009C75.892 104.38 73.8465 105.132 71.7453 105.132C66.8237 105.132 62.8163 101.13 62.8163 96.2088V92.1902L50.0805 103.003C48.4697 104.374 46.4242 105.127 44.3229 105.127L44.3118 105.138Z" stroke="#33998C" stroke-miterlimit="10"/>
<path d="M101.965 70.0627L86.7267 57.1263L73.1605 45.6055C71.7113 44.3738 69.4874 45.4049 69.4874 47.3055V65.7766L59.2988 57.1263L45.7326 45.6055C44.2835 44.3738 42.0596 45.4049 42.0596 47.3055V96.2198C42.0596 98.1204 44.2835 99.1515 45.7326 97.9197L59.2988 86.399L69.4874 77.7487V96.2198C69.4874 98.1204 71.7113 99.1515 73.1605 97.9197L86.7267 86.399L101.965 73.4626C103.013 72.5708 103.013 70.9545 101.965 70.0627Z" stroke="#33998C" stroke-miterlimit="10"/>
</svg>
