<svg width="144" height="144" viewBox="0 0 144 144" fill="none" xmlns="http://www.w3.org/2000/svg">
<g clip-path="url(#clip0_2323_989)">
<path opacity="0.2" d="M91.1558 119.731C84.008 119.731 77.2585 117.121 71.9945 112.357C66.736 117.126 59.9865 119.731 52.8333 119.731C45.2011 119.731 38.0264 116.76 32.6279 111.362C27.2401 105.963 24.269 98.7885 24.269 91.1563C24.269 84.0085 26.8795 77.259 31.6429 71.995C26.8795 66.7365 24.269 59.9923 24.269 52.8392C24.269 45.207 27.2401 38.0323 32.6386 32.6337C38.0318 27.2406 45.2065 24.2695 52.8387 24.2695C59.9865 24.2695 66.736 26.88 71.9999 31.6434C77.2585 26.88 84.008 24.2695 91.1558 24.2695C98.788 24.2695 105.963 27.2406 111.356 32.6391C122.153 43.4362 122.487 60.7997 112.346 72.0004C122.481 83.2011 122.153 100.565 111.356 111.362C105.957 116.76 98.7826 119.731 91.1504 119.731H91.1558Z" stroke="#33998C" stroke-miterlimit="10"/>
<path opacity="0.4" d="M91.1559 113.272C85.2515 113.272 79.6969 110.973 75.5202 106.797L71.9947 103.271L68.4692 106.797C64.2925 110.973 58.7379 113.272 52.8334 113.272C46.929 113.272 41.3744 110.973 37.1977 106.797C33.0209 102.62 30.7227 97.0707 30.7227 91.1608C30.7227 85.251 33.0209 79.7018 37.1977 75.525L40.7231 71.9996L37.1977 68.4741C33.0209 64.2974 30.7227 58.7482 30.7227 52.8383C30.7227 46.9285 33.0209 41.3793 37.1977 37.2025C41.3744 33.0258 46.929 30.7275 52.8334 30.7275C58.7379 30.7275 64.2925 33.0258 68.4692 37.2025L71.9947 40.728L75.5202 37.2025C79.6969 33.0258 85.2515 30.7275 91.1559 30.7275C97.0604 30.7275 102.615 33.0258 106.792 37.2025C115.414 45.8251 115.414 59.8516 106.792 68.4741L103.266 71.9996L106.792 75.525C115.414 84.1476 115.414 98.1741 106.792 106.797C102.615 110.973 97.0604 113.272 91.1559 113.272Z" stroke="#33998C" stroke-miterlimit="10"/>
<path opacity="0.6" d="M91.1556 106.813C86.9735 106.813 83.0443 105.182 80.0894 102.227L71.9997 94.1374L63.91 102.227C60.9551 105.182 57.0259 106.813 52.8438 106.813C48.6617 106.813 44.7326 105.182 41.7777 102.227C38.8228 99.2722 37.1919 95.3377 37.1919 91.1609C37.1919 86.9842 38.8228 83.0497 41.7777 80.0948L49.8674 72.0051L41.7777 63.9154C38.8228 60.9604 37.1919 57.0313 37.1919 52.8492C37.1919 48.6671 38.8174 44.738 41.7777 41.783C44.7326 38.8281 48.6617 37.1973 52.8438 37.1973C57.0259 37.1973 60.9551 38.8281 63.91 41.783L71.9997 49.8728L80.0894 41.783C83.0443 38.8281 86.9788 37.1973 91.1556 37.1973C95.3323 37.1973 99.2668 38.8281 102.222 41.783C108.325 47.8867 108.325 57.8171 102.222 63.9207L94.132 72.0104L102.222 80.1002C108.325 86.2038 108.325 96.1342 102.222 102.238C99.2614 105.193 95.3323 106.824 91.1502 106.824L91.1556 106.813Z" stroke="#33998C" stroke-miterlimit="10"/>
<path d="M84.9982 72.0002L97.6575 59.3409C101.248 55.7508 101.248 49.9271 97.6575 46.3371C94.0675 42.747 88.2437 42.747 84.6537 46.3371L71.9944 58.9964L59.335 46.3371C55.745 42.747 49.9212 42.747 46.3312 46.3371C42.7412 49.9271 42.7412 55.7508 46.3312 59.3409L58.9905 72.0002L46.3312 84.6596C42.7412 88.2496 42.7412 94.0733 46.3312 97.6634C49.9212 101.253 55.745 101.253 59.335 97.6634L71.9944 85.004L84.6537 97.6634C88.2437 101.253 94.0675 101.253 97.6575 97.6634C101.248 94.0733 101.248 88.2496 97.6575 84.6596L84.9982 72.0002Z" stroke="#33998C" stroke-miterlimit="10"/>
</g>
<defs>
<clipPath id="clip0_2323_989">
<rect width="95.9839" height="96" fill="white" transform="translate(24 24)"/>
</clipPath>
</defs>
</svg>
