<svg width="144" height="144" viewBox="0 0 144 144" fill="none" xmlns="http://www.w3.org/2000/svg">
<path opacity="0.2" d="M72.0926 113.473C42.3238 113.473 20.7594 87.7508 18.4018 84.8191C12.5327 77.5287 12.5327 66.9444 18.4018 59.6541C20.765 56.7223 42.3238 31 72.0926 31C101.861 31 123.42 56.7168 125.784 59.6541C131.653 66.9444 131.653 77.5287 125.784 84.8191C123.426 87.7508 101.867 113.473 72.0926 113.473Z" stroke="#33998C" stroke-miterlimit="10"/>
<path opacity="0.4" d="M72.0918 106.784C45.433 106.784 25.7637 83.3025 23.6123 80.6271C19.6996 75.7669 19.6996 68.7107 23.6123 63.8505C25.7693 61.1751 45.433 37.6934 72.0918 37.6934C98.7505 37.6934 118.42 61.1751 120.571 63.8505C124.484 68.7107 124.484 75.7669 120.571 80.6271C118.414 83.3025 98.7505 106.784 72.0918 106.784Z" stroke="#33998C" stroke-miterlimit="10"/>
<path opacity="0.6" d="M72.0936 100.097C48.1492 100.097 29.6002 77.4008 28.8255 76.431C26.8524 73.9841 26.8524 70.4895 28.8255 68.0426C29.6058 67.0784 48.1492 44.377 72.0936 44.377C96.038 44.377 114.587 67.0728 115.367 68.0426C117.34 70.4895 117.34 73.9841 115.367 76.431C114.587 77.3952 96.0435 100.097 72.0936 100.097Z" stroke="#33998C" stroke-miterlimit="10"/>
<path d="M72.0936 51.0703C93.1118 51.0703 110.156 72.239 110.156 72.239C110.156 72.239 93.1174 93.4077 72.0936 93.4077C51.0698 93.4077 34.0312 72.239 34.0312 72.239C34.0312 72.239 51.0698 51.0703 72.0936 51.0703Z" stroke="#33998C" stroke-miterlimit="10"/>
<path d="M72.1264 88.1572C63.2148 88.1572 55.9629 80.9053 55.9629 71.9936C55.9629 63.082 63.2148 55.8301 72.1264 55.8301C81.0381 55.8301 88.29 63.082 88.29 71.9936C88.29 80.9053 81.0381 88.1572 72.1264 88.1572Z" stroke="#33998C" stroke-miterlimit="10"/>
</svg>
