<svg width="1326" height="268" viewBox="0 0 1326 268" fill="none" xmlns="http://www.w3.org/2000/svg">
<path d="M0 205.343V1.8125H19.3003V89.8334H138.319V1.8125H157.326V205.343H138.319V106.209H19.3003V205.343H0Z" fill="#072723"/>
<path d="M207.719 267.048L234.037 201.544L177.014 64.6875H196.899L234.33 157.387C236.474 163.041 239.496 170.547 243.395 179.904C243.98 178.54 244.565 177.029 245.149 175.372C245.734 173.714 246.319 172.204 246.904 170.839C248.074 168.305 249.097 165.916 249.974 163.674C250.852 161.432 251.68 159.239 252.46 157.095L287.552 64.6875H306.559L226.726 267.048H207.719Z" fill="#072723"/>
<path d="M325.859 267.048V64.6877H343.99V90.4214C348.669 81.6486 355.443 74.4841 364.314 68.928C373.184 63.3718 383.078 60.5938 393.995 60.5938C407.057 60.5938 418.413 63.7617 428.063 70.0977C437.713 76.4336 445.121 85.2065 450.288 96.4162C455.454 107.626 458.037 120.347 458.037 134.578C458.037 148.81 455.356 161.871 449.995 173.179C444.634 184.486 437.08 193.356 427.332 199.79C417.584 206.223 406.472 209.44 393.995 209.44C383.468 209.44 373.769 206.905 364.899 201.837C356.028 196.768 349.059 189.36 343.99 179.612V267.048H325.859ZM391.363 194.818C400.916 194.818 409.348 192.284 416.658 187.215C423.969 182.146 429.574 175.079 433.473 166.014C437.372 156.949 439.322 146.47 439.322 134.578C439.322 122.686 437.323 112.841 433.327 103.873C429.33 94.9053 423.725 87.9358 416.512 82.9645C409.299 77.9932 400.916 75.5076 391.363 75.5076C381.811 75.5076 373.671 77.9445 366.361 82.8183C359.05 87.6921 353.348 94.6129 349.254 103.581C345.16 112.548 343.113 122.881 343.113 134.578C343.113 146.275 345.16 156.949 349.254 166.014C353.348 175.079 359.001 182.146 366.214 187.215C373.428 192.284 381.811 194.818 391.363 194.818Z" fill="#072723"/>
<path d="M544.597 209.44C531.341 209.44 519.692 206.515 509.652 200.667C499.612 194.818 491.814 186.24 486.258 174.933C480.702 163.626 477.924 150.077 477.924 134.286C477.924 120.249 480.799 107.626 486.55 96.4162C492.302 85.2065 500.148 76.4336 510.091 70.0977C520.034 63.7617 531.146 60.5938 543.428 60.5938C556.685 60.5938 567.992 63.6155 577.349 69.659C586.707 75.7025 593.823 84.2317 598.697 95.2465C603.57 106.261 606.007 119.079 606.007 133.701V137.502H496.054C496.054 149.589 498.101 159.922 502.195 168.5C506.289 177.078 512.04 183.609 519.449 188.092C526.857 192.576 535.337 194.818 544.89 194.818C556.197 194.818 565.604 192.138 573.109 186.777C580.615 181.415 585.245 173.374 587 162.651H605.13C603.765 171.619 600.597 179.612 595.626 186.63C590.655 193.649 583.832 199.205 575.156 203.299C566.481 207.393 556.295 209.44 544.597 209.44ZM586.707 123.758C586.512 109.137 582.613 97.4397 575.01 88.6669C567.407 79.894 556.879 75.5076 543.428 75.5076C529.976 75.5076 519.595 80.0402 511.114 89.1055C502.634 98.1708 497.809 109.722 496.639 123.758H586.707Z" fill="#072723"/>
<path d="M634.035 205.346V64.6877H652.166V92.7608C656.065 83.4031 662.157 75.7025 670.442 69.659C678.728 63.6155 688.427 60.5938 699.539 60.5938C702.268 60.5938 704.9 60.7887 707.435 61.1786V78.7243C704.12 78.3344 701.196 78.1394 698.662 78.1394C689.304 78.1394 681.116 80.2352 674.098 84.4266C667.08 88.6181 661.67 94.6129 657.868 102.411C654.066 110.209 652.166 119.274 652.166 129.607V205.346H634.035Z" fill="#072723"/>
<path d="M746.223 201.444L745.394 205.392H688.029L688.858 201.444C704.698 199.738 711.18 195.205 713.714 183.362L745.93 31.5431C749.342 15.9957 744.517 13.4613 728.141 16.8242L728.969 12.8765L764.012 0.984375H767.96L729.213 183.313C726.679 195.205 730.919 199.689 746.174 201.395L746.223 201.444Z" fill="#072723"/>
<path d="M810.851 201.442L810.023 205.389H752.658L753.487 201.442C769.327 199.736 775.809 195.203 778.343 183.36L797.838 90.9037C801.25 75.0638 796.717 72.8219 780.049 76.1848L780.878 72.237L815.92 60.3449H819.868L793.842 183.311C791.308 195.203 795.548 199.687 810.803 201.393L810.851 201.442ZM820.453 9.21875C828.105 9.21875 833.173 15.1648 832.345 22.7679C831.224 30.4198 824.449 36.0734 817.09 36.0734C809.194 36.0734 803.784 30.4198 804.954 22.7679C805.783 15.1161 812.606 9.21875 820.502 9.21875H820.453Z" fill="#072723"/>
<path d="M909.648 246.135L925.39 173.418C915.496 194.911 894.88 209.581 873.094 209.581C838.052 209.581 821.627 176.488 832.106 127.019C839.465 91.0993 871.681 60.2969 909.843 60.2969C927.389 60.2969 941.766 68.1924 947.712 79.7921L961.018 60.2969H964.966L925.195 246.038C922.368 258.758 932.555 261.293 942.741 262.998L941.912 266.946H876.067L876.896 262.998C895.855 261.293 906.87 258.758 909.697 246.038L909.648 246.135ZM882.452 199.152C900.534 199.152 918.616 183.604 927.096 164.937L938.988 109.23C942.107 89.1498 932.506 68.2412 905.066 68.2412C877.627 68.2412 856.182 91.9766 849.115 126.727C840.05 169.421 852.771 199.103 882.452 199.103V199.152Z" fill="#072723"/>
<path d="M1161.08 201.442L1160.26 205.389H1102.89L1103.72 201.442C1119.56 199.736 1126.04 195.203 1128.58 183.36L1148.07 90.9037C1151.48 75.0638 1146.95 72.8219 1130.28 76.1848L1131.11 72.237L1166.15 60.3449H1170.1L1144.07 183.311C1141.54 195.203 1145.78 199.687 1161.04 201.393L1161.08 201.442ZM1170.69 9.21875C1178.34 9.21875 1183.41 15.1648 1182.58 22.7679C1181.46 30.4198 1174.68 36.0734 1167.32 36.0734C1159.43 36.0734 1154.02 30.4198 1155.19 22.7679C1156.02 15.1161 1162.84 9.21875 1170.73 9.21875H1170.69Z" fill="#072723"/>
<path d="M1079.59 183.019L1092.6 120.927L1105.42 60.3945H1101.48L1066.43 72.2866L1065.6 76.2344C1081.98 72.8227 1086.8 75.1134 1083.39 90.9533L1066.72 169.811C1048.35 187.065 1035.34 197.251 1019.5 197.251C1000 197.251 989.816 183.945 994.641 161.087L1016.13 60.4433H1012.19L976.852 72.3354L976.023 76.2831C992.692 72.8715 997.224 75.1622 994.105 91.002L978.85 163.378C972.904 190.233 986.502 209.728 1011.65 209.728C1028.32 209.728 1042.99 200.419 1065.56 176.196L1064.48 181.314V181.557H1064.43L1059.37 205.536H1095.77L1096.6 201.247C1081.35 199.542 1077.11 195.009 1079.64 183.166L1079.59 183.019Z" fill="#072723"/>
<path d="M1313.93 55.0836L1325.33 0.984375H1321.39L1286.34 12.8765L1285.51 16.8242C1301.89 13.4126 1306.72 15.9957 1303.3 31.5431L1293.41 77.6006C1287.17 67.1219 1273.62 60.3473 1257.78 60.3473C1219.33 60.3473 1187.41 90.8573 1179.22 129.604C1169.32 176.539 1185.46 209.583 1220.79 209.583C1242.82 209.583 1263.78 194.621 1273.38 173.127L1270.84 185.458L1266.6 205.343L1303.01 205.051L1303.84 201.103C1288.59 199.397 1284.35 194.864 1286.88 183.021L1313.88 55.0836H1313.93ZM1275.04 164.647C1266.56 183.606 1248.47 199.153 1230.1 199.153C1200.42 199.153 1187.7 169.472 1196.18 129.312C1204.07 91.9783 1226.69 68.2429 1253.01 68.2429C1281.08 68.2429 1290.44 90.5161 1286.73 110.791L1285.42 116.932L1275.08 164.647H1275.04Z" fill="#072723"/>
</svg>
