<?xml version="1.0" encoding="UTF-8"?>
<!DOCTYPE svg PUBLIC "-//W3C//DTD SVG 1.1//EN" "http://www.w3.org/Graphics/SVG/1.1/DTD/svg11.dtd">
<svg xmlns="http://www.w3.org/2000/svg" version="1.1" width="12000px" height="12000px" style="shape-rendering:geometricPrecision; text-rendering:geometricPrecision; image-rendering:optimizeQuality; fill-rule:evenodd; clip-rule:evenodd" xmlns:xlink="http://www.w3.org/1999/xlink">
  <defs>
    <mask id="mask1">
        <rect width="12000" height="12000" x="0" y="0" fill="white" mask="url(#mask1)"/>
        <g transform="translate(5400, 5400)">
        <path fill="black" d="M 798.5,317.5 C 828.712,317.957 855.378,327.79 878.5,347C 912.143,377.414 935.31,414.581 948,458.5C 964.774,517.902 969.108,578.236 961,639.5C 955.751,685.835 942.751,729.835 922,771.5C 906.836,801.329 885.336,825.495 857.5,844C 824.336,862.907 791.002,863.24 757.5,845C 731.37,828.257 710.537,806.423 695,779.5C 683.746,759.326 672.746,738.993 662,718.5C 647.882,694.049 628.715,674.549 604.5,660C 542.835,634.041 490.335,646.541 447,697.5C 431.245,720.01 415.245,742.343 399,764.5C 385.875,780.146 369.375,790.313 349.5,795C 331.543,797.427 315.21,793.427 300.5,783C 281.711,767.867 267.877,749.034 259,726.5C 230.447,655.315 224.447,582.315 241,507.5C 248.375,479.235 262.542,455.068 283.5,435C 312.024,413.73 341.69,412.063 372.5,430C 383.514,437.005 393.347,445.505 402,455.5C 417.996,477.504 435.496,498.338 454.5,518C 502.608,558.16 553.941,562.827 608.5,532C 630.757,515.744 647.924,495.244 660,470.5C 671.2,445.766 683.2,421.433 696,397.5C 708.535,376.287 724.035,357.453 742.5,341C 758.973,327.791 777.639,319.958 798.5,317.5 Z"/>
        </g>
    </mask>
  </defs>
  <rect width="12000" height="12000" x="0" y="0" fill="black" mask="url(#mask1)"/>
</svg>
