<svg width="250" height="51" viewBox="0 0 250 51" fill="none" xmlns="http://www.w3.org/2000/svg">
<path d="M0 38.7594V0.367188H3.64064V16.9707H26.0913V0.367188H29.6767V38.7594H26.0913V20.0597H3.64064V38.7594H0Z" fill="white"/>
<path d="M39.1825 50.3981L44.1471 38.042L33.3906 12.2266H37.1416L44.2022 29.7127C44.6067 30.7791 45.1767 32.1949 45.9122 33.9601C46.0225 33.7027 46.1329 33.4177 46.2432 33.1051C46.3535 32.7925 46.4638 32.5075 46.5742 32.2501C46.7948 31.772 46.9879 31.3215 47.1533 30.8986C47.3188 30.4757 47.4751 30.062 47.6222 29.6575L54.2416 12.2266H57.827L42.768 50.3981H39.1825Z" fill="white"/>
<path d="M61.4668 50.3969V12.2254H64.8868V17.0796C65.7694 15.4247 67.0473 14.0733 68.7205 13.0252C70.3937 11.9772 72.26 11.4531 74.3194 11.4531C76.7832 11.4531 78.9253 12.0507 80.7456 13.2459C82.566 14.441 83.9634 16.0959 84.9379 18.2104C85.9124 20.3249 86.3997 22.7244 86.3997 25.4089C86.3997 28.0934 85.894 30.5573 84.8827 32.6902C83.8715 34.8231 82.4464 36.4963 80.6077 37.7099C78.769 38.9234 76.6729 39.5302 74.3194 39.5302C72.3336 39.5302 70.504 39.0521 68.8308 38.096C67.1576 37.1399 65.8429 35.7424 64.8868 33.9037V50.3969H61.4668ZM73.8229 36.7721C75.6248 36.7721 77.2153 36.2941 78.5944 35.3379C79.9734 34.3818 81.0306 33.0487 81.7661 31.3387C82.5016 29.6287 82.8694 27.6521 82.8694 25.4089C82.8694 23.1657 82.4924 21.3086 81.7386 19.617C80.9847 17.9254 79.9274 16.6107 78.5668 15.673C77.2061 14.7352 75.6248 14.2663 73.8229 14.2663C72.021 14.2663 70.4857 14.726 69.1066 15.6454C67.7276 16.5647 66.652 17.8702 65.8797 19.5618C65.1074 21.2534 64.7213 23.2025 64.7213 25.4089C64.7213 27.6154 65.1074 29.6287 65.8797 31.3387C66.652 33.0487 67.7184 34.3818 69.079 35.3379C70.4397 36.2941 72.021 36.7721 73.8229 36.7721Z" fill="white"/>
<path d="M102.729 39.5302C100.228 39.5302 98.0312 38.9786 96.1373 37.8754C94.2435 36.7721 92.7725 35.1541 91.7244 33.0212C90.6764 30.8883 90.1523 28.3325 90.1523 25.3538C90.1523 22.706 90.6948 20.3249 91.7796 18.2104C92.8644 16.0959 94.3446 14.441 96.2201 13.2459C98.0956 12.0507 100.192 11.4531 102.508 11.4531C105.009 11.4531 107.142 12.0231 108.907 13.1631C110.672 14.3031 112.015 15.912 112.934 17.9897C113.853 20.0675 114.313 22.4854 114.313 25.2434V25.9605H93.5723C93.5723 28.2405 93.9585 30.1896 94.7307 31.8076C95.503 33.4257 96.5878 34.6576 97.9852 35.5034C99.3827 36.3492 100.982 36.7721 102.784 36.7721C104.917 36.7721 106.692 36.2665 108.107 35.2552C109.523 34.2439 110.397 32.727 110.727 30.7044H114.147C113.89 32.396 113.292 33.9037 112.355 35.2276C111.417 36.5515 110.13 37.5995 108.493 38.3718C106.857 39.1441 104.936 39.5302 102.729 39.5302ZM110.672 23.368C110.636 20.6099 109.9 18.4034 108.466 16.7486C107.032 15.0938 105.046 14.2663 102.508 14.2663C99.971 14.2663 98.0128 15.1213 96.4131 16.8313C94.8135 18.5413 93.9033 20.7202 93.6827 23.368H110.672Z" fill="white"/>
<path d="M119.6 38.7579V12.2254H123.02V17.5209C123.755 15.7557 124.904 14.3031 126.467 13.1631C128.03 12.0231 129.86 11.4531 131.956 11.4531C132.471 11.4531 132.967 11.4899 133.445 11.5634V14.8731C132.82 14.7996 132.268 14.7628 131.79 14.7628C130.025 14.7628 128.481 15.1581 127.157 15.9488C125.833 16.7394 124.812 17.8702 124.095 19.3412C123.378 20.8121 123.02 22.5221 123.02 24.4712V38.7579H119.6Z" fill="white"/>
<path d="M140.76 38.024L140.604 38.7686H129.783L129.939 38.024C132.927 37.7022 134.15 36.8472 134.628 34.6132L140.705 5.97529C141.349 3.04255 140.439 2.56448 137.349 3.19884L137.506 2.45416L144.116 0.210938H144.861L137.552 34.604C137.074 36.8472 137.874 37.693 140.751 38.0148L140.76 38.024Z" fill="white"/>
<path d="M152.952 38.0249L152.795 38.7696H141.975L142.131 38.0249C145.119 37.7032 146.342 36.8482 146.82 34.6141L150.497 17.174C151.141 14.1861 150.286 13.7632 147.141 14.3975L147.298 13.6529L153.908 11.4096H154.653L149.743 34.6049C149.265 36.8482 150.065 37.694 152.943 38.0157L152.952 38.0249ZM154.763 1.76562C156.206 1.76562 157.162 2.88724 157.006 4.32143C156.795 5.76481 155.517 6.83126 154.128 6.83126C152.639 6.83126 151.619 5.76481 151.839 4.32143C151.996 2.87804 153.283 1.76562 154.772 1.76562H154.763Z" fill="white"/>
<path d="M171.588 46.4534L174.557 32.7366C172.691 36.791 168.802 39.5582 164.692 39.5582C158.082 39.5582 154.984 33.3158 156.961 23.9844C158.349 17.2088 164.426 11.3984 171.624 11.3984C174.934 11.3984 177.646 12.8878 178.768 15.0759L181.278 11.3984H182.022L174.52 46.435C173.987 48.8345 175.908 49.3126 177.83 49.6344L177.674 50.379H165.253L165.409 49.6344C168.986 49.3126 171.063 48.8345 171.597 46.435L171.588 46.4534ZM166.458 37.5908C169.868 37.5908 173.279 34.6581 174.879 31.137L177.122 20.6288C177.71 16.841 175.899 12.897 170.723 12.897C165.547 12.897 161.502 17.3742 160.169 23.9292C158.459 31.9828 160.859 37.5816 166.458 37.5816V37.5908Z" fill="white"/>
<path d="M219.018 38.0249L218.862 38.7696H208.041L208.197 38.0249C211.185 37.7032 212.408 36.8482 212.886 34.6141L216.563 17.174C217.207 14.1861 216.352 13.7632 213.208 14.3975L213.364 13.6529L219.974 11.4096H220.719L215.81 34.6049C215.332 36.8482 216.131 37.694 219.009 38.0157L219.018 38.0249ZM220.829 1.76562C222.273 1.76562 223.229 2.88724 223.072 4.32143C222.861 5.76481 221.583 6.83126 220.195 6.83126C218.706 6.83126 217.685 5.76481 217.906 4.32143C218.062 2.87804 219.349 1.76562 220.838 1.76562H220.829Z" fill="white"/>
<path d="M203.646 34.5489L206.1 22.8363L208.518 11.418H207.774L201.163 13.6612L201.007 14.4059C204.096 13.7623 205.006 14.1944 204.363 17.1823L201.219 32.0575C197.753 35.312 195.298 37.2334 192.31 37.2334C188.633 37.2334 186.711 34.7236 187.621 30.4118L191.676 11.4272H190.931L184.266 13.6704L184.109 14.4151C187.254 13.7715 188.109 14.2036 187.52 17.1915L184.643 30.8439C183.521 35.9096 186.086 39.587 190.83 39.587C193.974 39.587 196.741 37.831 200.998 33.2618L200.796 34.2271V34.2731H200.786L199.83 38.7963H206.698L206.854 37.9873C203.977 37.6655 203.177 36.8105 203.655 34.5765L203.646 34.5489Z" fill="white"/>
<path d="M247.849 10.4158L250 0.210938H249.255L242.645 2.45416L242.489 3.19884C245.578 2.55529 246.488 3.04255 245.845 5.97529L243.978 14.6632C242.801 12.6866 240.246 11.4087 237.258 11.4087C230.004 11.4087 223.982 17.1638 222.438 24.4727C220.571 33.3261 223.615 39.5593 230.28 39.5593C234.435 39.5593 238.389 36.7369 240.2 32.6825L239.722 35.0085L238.922 38.7594L245.789 38.7043L245.946 37.9596C243.068 37.6378 242.268 36.7828 242.746 34.5488L247.84 10.4158H247.849ZM240.512 31.0828C238.913 34.6591 235.502 37.5919 232.036 37.5919C226.437 37.5919 224.037 31.993 225.637 24.4175C227.126 17.3753 231.392 12.898 236.357 12.898C241.652 12.898 243.417 17.0995 242.719 20.924L242.47 22.0824L240.521 31.0828H240.512Z" fill="white"/>
</svg>
