<svg width="1920" height="2607" viewBox="0 0 1920 2607" fill="none" xmlns="http://www.w3.org/2000/svg">
<path d="M1350.19 740.056C1382.87 754.865 1412.66 774.323 1440.83 796.223C1472.67 820.985 1501.8 848.637 1527.13 880.162C1545.83 903.404 1563.21 927.45 1578.21 953.344C1589.68 973.129 1600.79 993.033 1610.11 1013.89C1620.48 1037.16 1629.26 1061.03 1637 1085.34C1642.68 1103.16 1647.63 1121.16 1651.76 1139.31C1654.51 1151.29 1658.21 1163.26 1658.66 1175.72C1658.75 1178.04 1660 1179.95 1660.09 1182.19C1662.63 1201.4 1665.35 1220.62 1666.99 1239.99C1668.4 1256.59 1669.23 1273.22 1670.25 1289.84C1671.59 1311.74 1671.05 1333.73 1669.26 1355.55C1666.9 1384.42 1665.26 1413.32 1660.54 1442.05C1655.37 1473.39 1648.59 1504.26 1640.02 1534.8C1633.62 1557.57 1625.29 1579.68 1616.63 1601.67C1615.07 1605.6 1612.98 1609.33 1611.64 1613.35C1598.23 1642.97 1583.86 1672.02 1565.75 1699.2C1550.61 1721.93 1534.33 1743.77 1516.52 1764.51C1509 1773.3 1500.33 1780.99 1493.25 1790.11C1492.6 1791.09 1491.76 1791.89 1490.92 1792.7C1484.17 1796.87 1479.54 1803.43 1473.45 1808.31C1429.71 1848.57 1380.37 1880.15 1325.61 1903.36C1301.77 1913.29 1277.3 1921.57 1252.24 1927.83C1233.75 1932.45 1214.87 1935.28 1195.99 1938.11C1165.28 1942.7 1134.42 1940.37 1103.63 1940.67C1080.8 1940.25 1058.43 1935.99 1036.23 1931.34C995.875 1922.88 957.19 1909.21 920.596 1890.02C907.393 1883.07 894.279 1875.98 881.882 1867.64C878.028 1865.05 874.115 1864.33 869.246 1865.82C845.766 1872.97 822.047 1879.17 797.522 1881.91C787.933 1882.98 778.343 1883.97 768.814 1885.4C767.888 1885.52 766.932 1885.61 766.006 1885.61C739.031 1885.46 712.056 1886.41 685.111 1884.12C681.646 1883.82 678.27 1883.04 674.805 1882.8C632.416 1876.99 591.222 1866.54 551.85 1849.64C526.04 1838.56 501.515 1825.15 478.124 1809.41C453.031 1792.52 430.029 1773.33 408.551 1752.2C388.925 1732.9 371.778 1711.41 355.348 1689.36C353.795 1687.28 352.211 1685.19 350.628 1683.1C339.545 1666.09 328.821 1648.87 319.441 1630.81C309.314 1611.35 300.144 1591.51 292.138 1571.1C279.741 1539.48 270.002 1507.06 261.907 1474.2C257.605 1456.71 254.707 1438.8 253.363 1420.74C253.513 1412.1 251.631 1403.67 250.466 1395.15C250.406 1394.16 250.346 1393.21 250.286 1392.23C246.612 1354.83 246.522 1317.32 247.598 1279.92C248.225 1257.84 250.137 1235.52 254.498 1213.62C255.454 1208.88 255.753 1203.91 256.38 1199.02C260.622 1181.47 263.161 1163.56 267.941 1146.16C275.11 1120.03 283.295 1094.22 293.303 1069.05C295.185 1064.31 297.455 1059.6 299.755 1054.98C307.164 1043.51 312.81 1030.99 319.113 1018.96C328.164 1001.67 338.948 985.465 350.12 969.732C368.074 944.464 389.104 921.55 411.628 900.096C432.897 879.864 456.228 862.462 481.171 846.759C499.633 835.109 518.811 824.918 538.586 816.277C561.917 806.057 586.173 797.922 611.326 792.439C626.561 789.132 641.736 785.556 657.18 783.351C686.485 779.18 715.88 777.839 745.484 779.12C766.126 780.044 786.588 781.98 806.872 785.556C816.102 787.195 825.542 788.089 834.444 791.337C840.508 793.542 844.511 788.655 847.797 785.884C867.692 768.959 890.127 755.789 912.86 743.483C928.662 734.901 945.54 728.137 962.538 721.343C1124.45 656.445 1277.69 707.279 1350.19 740.175V740.056Z" stroke="url(#paint0_linear_2566_3662)" stroke-opacity="0.4" stroke-width="1.3" stroke-miterlimit="10"/>
<path d="M1383.99 688.762C1419.57 704.933 1451.95 726.146 1482.57 750.044C1517.19 777.075 1548.92 807.238 1576.44 841.609C1596.78 866.969 1615.68 893.194 1632.02 921.448C1644.52 943.049 1656.6 964.739 1666.73 987.504C1678.04 1012.89 1687.58 1038.94 1695.99 1065.46C1702.16 1084.92 1707.56 1104.55 1712.06 1124.33C1715.04 1137.4 1719.07 1150.46 1719.57 1164.04C1719.66 1166.58 1721.03 1168.66 1721.12 1171.08C1723.87 1192.06 1726.82 1213.03 1728.64 1234.15C1730.19 1252.26 1731.08 1270.4 1732.19 1288.54C1733.65 1312.44 1733.05 1336.43 1731.11 1360.24C1728.55 1391.74 1726.76 1423.28 1721.6 1454.64C1715.96 1488.86 1708.6 1522.51 1699.27 1555.84C1692.29 1580.69 1683.22 1604.8 1673.83 1628.79C1672.16 1633.08 1669.87 1637.14 1668.4 1641.53C1653.79 1673.84 1638.2 1705.55 1618.52 1735.18C1602.03 1760 1584.31 1783.81 1564.96 1806.46C1556.79 1816.03 1547.34 1824.42 1539.65 1834.38C1538.93 1835.46 1538.01 1836.32 1537.11 1837.22C1529.78 1841.75 1524.74 1848.91 1518.09 1854.25C1470.53 1898.17 1416.85 1932.63 1357.27 1957.96C1331.33 1968.79 1304.7 1977.83 1277.48 1984.63C1257.38 1989.67 1236.81 1992.78 1216.29 1995.85C1182.89 2000.83 1149.32 1998.33 1115.83 1998.65C1090.99 1998.21 1066.66 1993.55 1042.54 1988.48C998.613 1979.26 956.568 1964.34 916.76 1943.4C902.387 1935.82 888.134 1928.09 874.656 1918.96C870.481 1916.13 866.217 1915.35 860.909 1917C835.355 1924.81 809.561 1931.56 782.873 1934.57C772.467 1935.73 762 1936.81 751.623 1938.36C750.609 1938.51 749.595 1938.6 748.552 1938.6C719.21 1938.45 689.839 1939.46 660.556 1936.99C656.799 1936.66 653.102 1935.82 649.345 1935.55C603.215 1929.23 558.427 1917.8 515.607 1899.36C487.518 1887.25 460.83 1872.63 435.394 1855.47C408.11 1837.07 383.062 1816.09 359.714 1793.03C338.364 1771.94 319.697 1748.52 301.836 1724.47C300.136 1722.2 298.406 1719.93 296.707 1717.64C284.66 1699.05 273.001 1680.25 262.773 1660.59C251.74 1639.38 241.81 1617.72 233.073 1595.43C219.595 1560.94 209.01 1525.56 200.183 1489.69C195.502 1470.6 192.371 1451.06 190.91 1431.36C191.059 1421.94 189.031 1412.75 187.779 1403.44C187.719 1402.36 187.659 1401.32 187.57 1400.25C183.574 1359.46 183.485 1318.5 184.648 1277.71C185.333 1253.64 187.391 1229.26 192.162 1205.36C193.206 1200.17 193.534 1194.74 194.219 1189.43C198.812 1170.31 201.585 1150.73 206.803 1131.73C214.586 1103.24 223.502 1075.07 234.385 1047.59C236.443 1042.4 238.888 1037.27 241.393 1032.23C249.444 1019.7 255.587 1006.06 262.445 992.904C272.285 974.048 284.004 956.386 296.17 939.2C315.701 911.603 338.602 886.601 363.084 863.239C386.223 841.161 411.629 822.186 438.734 805.031C458.832 792.321 479.675 781.192 501.175 771.764C526.551 760.636 552.91 751.715 580.314 745.748C596.893 742.138 613.413 738.229 630.201 735.842C662.077 731.307 694.043 729.816 726.277 731.248C748.731 732.232 771.005 734.38 793.071 738.289C803.12 740.049 813.378 741.064 823.069 744.614C829.659 747.031 834.043 741.69 837.621 738.647C859.269 720.149 883.691 705.828 908.381 692.372C925.586 683.004 943.955 675.635 962.413 668.206C1138.52 597.376 1305.24 652.87 1384.11 688.732L1383.99 688.762Z" stroke="url(#paint1_linear_2566_3662)" stroke-opacity="0.2" stroke-width="1.3" stroke-miterlimit="10"/>
<path d="M1422.61 629.023C1461.47 646.729 1496.88 669.988 1530.35 696.143C1568.21 725.732 1602.84 758.785 1632.95 796.435C1655.17 824.232 1675.83 852.926 1693.7 883.888C1707.34 907.535 1720.56 931.302 1731.61 956.233C1743.94 984.03 1754.37 1012.54 1763.6 1041.6C1770.36 1062.88 1776.23 1084.38 1781.14 1106.06C1784.39 1120.39 1788.79 1134.66 1789.36 1149.56C1789.45 1152.34 1790.97 1154.61 1791.06 1157.29C1794.06 1180.28 1797.28 1203.21 1799.25 1226.35C1800.94 1246.18 1801.9 1266.07 1803.12 1285.92C1804.7 1312.11 1804.07 1338.35 1801.93 1364.45C1799.13 1398.93 1797.19 1433.48 1791.53 1467.81C1785.37 1505.28 1777.33 1542.16 1767.14 1578.64C1759.52 1605.87 1749.63 1632.27 1739.33 1658.51C1737.48 1663.2 1735.01 1667.65 1733.37 1672.49C1717.41 1707.87 1700.34 1742.59 1678.84 1775.05C1660.82 1802.22 1641.47 1828.28 1620.32 1853.1C1611.39 1863.58 1601.05 1872.77 1592.66 1883.7C1591.88 1884.86 1590.87 1885.82 1589.89 1886.8C1581.88 1891.76 1576.37 1899.61 1569.1 1905.47C1517.1 1953.57 1458.43 1991.31 1393.33 2019.04C1364.98 2030.9 1335.88 2040.81 1306.1 2048.27C1284.13 2053.77 1261.67 2057.17 1239.22 2060.55C1202.7 2066.01 1166.04 2063.26 1129.41 2063.62C1102.28 2063.11 1075.66 2058.04 1049.3 2052.48C1001.3 2042.39 955.344 2026.03 911.834 2003.1C896.11 1994.83 880.534 1986.35 865.793 1976.35C861.206 1973.24 856.561 1972.41 850.753 1974.2C822.819 1982.74 794.646 1990.14 765.461 1993.43C754.084 1994.71 742.649 1995.87 731.332 1997.58C730.23 1997.73 729.098 1997.81 727.996 1997.84C695.922 1997.67 663.848 1998.8 631.804 1996.05C627.694 1995.69 623.674 1994.77 619.564 1994.5C569.145 1987.57 520.215 1975.06 473.399 1954.85C442.695 1941.59 413.539 1925.59 385.754 1906.78C355.913 1886.6 328.574 1863.63 303.022 1838.41C279.674 1815.33 259.274 1789.68 239.768 1763.31C237.921 1760.81 236.015 1758.33 234.169 1755.82C221.006 1735.49 208.259 1714.88 197.092 1693.33C185.06 1670.07 174.16 1646.36 164.63 1621.97C149.889 1584.2 138.334 1545.47 128.685 1506.18C123.562 1485.28 120.138 1463.87 118.529 1442.31C118.678 1431.98 116.475 1421.92 115.105 1411.71C115.045 1410.55 114.956 1409.38 114.896 1408.22C110.548 1363.55 110.429 1318.7 111.71 1274.01C112.454 1247.61 114.717 1220.95 119.929 1194.77C121.061 1189.09 121.448 1183.15 122.192 1177.3C127.225 1156.34 130.263 1134.93 135.921 1114.12C144.439 1082.92 154.177 1052.08 166.09 1021.98C168.323 1016.31 171.033 1010.69 173.773 1005.17C182.588 991.435 189.289 976.506 196.794 962.115C207.545 941.453 220.35 922.106 233.663 903.295C255.015 873.079 280.031 845.7 306.804 820.082C332.089 795.898 359.844 775.117 389.476 756.336C411.425 742.423 434.237 730.241 457.734 719.91C485.46 707.698 514.288 697.965 544.218 691.426C562.355 687.455 580.372 683.185 598.747 680.558C633.561 675.571 668.524 673.959 703.725 675.512C728.264 676.587 752.595 678.945 776.718 683.215C787.677 685.156 798.905 686.26 809.507 690.142C816.714 692.799 821.479 686.947 825.41 683.603C849.056 663.36 875.74 647.655 902.751 632.935C921.543 622.664 941.615 614.602 961.806 606.451C1154.28 528.911 1336.48 589.641 1422.67 628.934L1422.61 629.023Z" stroke="url(#paint2_linear_2566_3662)" stroke-opacity="0.05" stroke-width="1.3" stroke-miterlimit="10"/>
<path d="M1462.36 572.862C1504.51 592.011 1542.89 617.135 1579.21 645.425C1620.26 677.42 1657.83 713.119 1690.48 753.837C1714.57 783.861 1736.99 814.929 1756.36 848.358C1771.16 873.93 1785.48 899.622 1797.49 926.568C1810.89 956.621 1822.19 987.451 1832.17 1018.85C1839.49 1041.85 1845.86 1065.12 1851.21 1088.54C1854.74 1104.02 1859.52 1119.46 1860.12 1135.57C1860.24 1138.55 1861.85 1141.03 1861.94 1143.9C1865.2 1168.76 1868.7 1193.55 1870.85 1218.56C1872.68 1240 1873.75 1261.48 1875.04 1282.93C1876.77 1311.22 1876.05 1339.6 1873.75 1367.8C1870.7 1405.09 1868.61 1442.43 1862.48 1479.53C1855.82 1520.04 1847.09 1559.89 1836.03 1599.33C1827.78 1628.75 1817.01 1657.28 1805.86 1685.69C1803.86 1690.77 1801.17 1695.58 1799.41 1700.78C1782.1 1739.02 1763.6 1776.57 1740.25 1811.64C1720.7 1841.01 1699.71 1869.21 1676.79 1896.03C1667.1 1907.39 1655.89 1917.3 1646.77 1929.1C1645.94 1930.36 1644.83 1931.41 1643.75 1932.45C1635.06 1937.83 1629.11 1946.28 1621.21 1952.62C1564.84 2004.63 1501.22 2045.4 1430.62 2075.4C1399.86 2088.21 1368.32 2098.94 1336.03 2107C1312.21 2112.95 1287.85 2116.62 1263.48 2120.27C1223.87 2126.18 1184.12 2123.2 1144.42 2123.58C1114.97 2123.05 1086.13 2117.55 1057.55 2111.54C1005.5 2100.64 955.643 2082.96 908.472 2058.16C891.432 2049.2 874.543 2040.03 858.55 2029.24C853.588 2025.9 848.536 2024.97 842.228 2026.91C811.946 2036.14 781.366 2044.15 749.739 2047.7C737.393 2049.08 725.017 2050.36 712.701 2052.19C711.505 2052.36 710.28 2052.45 709.084 2052.45C674.318 2052.27 639.523 2053.47 604.787 2050.54C600.303 2050.15 595.968 2049.17 591.514 2048.87C536.839 2041.37 483.749 2027.84 433.02 2006C399.719 1991.69 368.092 1974.36 337.96 1954.05C305.616 1932.24 275.932 1907.42 248.251 1880.14C222.931 1855.2 200.81 1827.44 179.646 1798.97C177.643 1796.29 175.58 1793.6 173.577 1790.88C159.289 1768.89 145.478 1746.64 133.371 1723.33C120.308 1698.21 108.5 1672.58 98.1869 1646.2C82.194 1605.39 69.6688 1563.48 59.2061 1521.03C53.646 1498.41 49.9393 1475.29 48.2055 1451.99C48.3848 1440.82 45.9635 1429.94 44.4688 1418.92C44.3791 1417.63 44.3193 1416.41 44.2297 1415.13C39.5065 1366.85 39.387 1318.36 40.762 1270.06C41.5692 1241.53 44.0204 1212.7 49.6702 1184.41C50.8958 1178.29 51.3143 1171.83 52.1215 1165.53C57.562 1142.88 60.8503 1119.73 67.0083 1097.24C76.2453 1063.51 86.7976 1030.14 99.7114 997.638C102.133 991.514 105.062 985.42 108.022 979.475C117.588 964.627 124.852 948.495 132.983 932.931C144.671 910.586 158.541 889.674 172.95 869.36C196.117 836.707 223.23 807.102 252.256 779.409C279.668 753.27 309.771 730.805 341.906 710.52C365.731 695.494 390.453 682.319 415.922 671.147C445.994 657.972 477.262 647.427 509.696 640.347C529.366 636.045 548.916 631.444 568.825 628.606C606.58 623.229 644.515 621.466 682.688 623.139C709.293 624.304 735.689 626.844 761.845 631.474C773.743 633.565 785.909 634.76 797.388 638.942C805.22 641.81 810.392 635.507 814.637 631.892C840.285 610.025 869.222 593.026 898.517 577.104C918.904 566.02 940.666 557.267 962.548 548.484C1171.29 464.658 1368.89 530.321 1462.36 572.802V572.862Z" stroke="url(#paint3_linear_2566_3662)" stroke-opacity="0.05" stroke-width="1.3" stroke-miterlimit="10"/>
<path d="M1501.94 513.993C1547.4 534.648 1588.8 561.751 1627.96 592.286C1672.22 626.791 1712.76 665.356 1747.95 709.263C1773.91 741.679 1798.12 775.169 1818.98 811.256C1834.95 838.836 1850.38 866.566 1863.34 895.638C1877.75 928.084 1889.96 961.335 1900.73 995.214C1908.61 1020.05 1915.51 1045.15 1921.27 1070.43C1925.06 1087.15 1930.22 1103.8 1930.88 1121.18C1931 1124.4 1932.76 1127.09 1932.85 1130.19C1936.37 1156.99 1940.13 1183.77 1942.43 1210.78C1944.4 1233.91 1945.54 1257.11 1946.97 1280.27C1948.82 1310.8 1948.07 1341.43 1945.59 1371.87C1942.31 1412.11 1940.04 1452.41 1933.45 1492.46C1926.25 1536.16 1916.85 1579.17 1904.91 1621.77C1896.02 1653.53 1884.44 1684.33 1872.38 1714.96C1870.23 1720.45 1867.33 1725.64 1865.42 1731.25C1846.77 1772.53 1826.8 1813.04 1801.64 1850.92C1780.57 1882.62 1757.91 1913.03 1733.2 1941.98C1722.75 1954.22 1710.7 1964.94 1700.85 1977.68C1699.95 1979.06 1698.76 1980.16 1697.59 1981.3C1688.22 1987.09 1681.77 1996.22 1673.3 2003.06C1612.5 2059.17 1543.88 2103.2 1467.74 2135.55C1434.58 2149.37 1400.55 2160.96 1365.75 2169.64C1340.05 2176.06 1313.78 2180.03 1287.52 2183.97C1244.81 2190.36 1201.92 2187.13 1159.12 2187.55C1127.36 2186.98 1096.26 2181.04 1065.42 2174.57C1009.28 2162.78 955.556 2143.73 904.666 2116.96C886.28 2107.29 868.073 2097.41 850.822 2085.77C845.479 2082.15 840.017 2081.17 833.242 2083.26C800.589 2093.23 767.607 2101.85 733.492 2105.71C720.18 2107.2 706.808 2108.57 693.556 2110.54C692.272 2110.72 690.959 2110.84 689.646 2110.84C652.157 2110.63 614.609 2111.94 577.151 2108.75C572.345 2108.33 567.629 2107.26 562.824 2106.93C503.875 2098.84 446.628 2084.24 391.888 2060.69C355.981 2045.23 321.896 2026.55 289.362 2004.61C254.47 1981.09 222.474 1954.28 192.627 1924.85C165.316 1897.93 141.468 1867.99 118.635 1837.25C116.456 1834.32 114.247 1831.43 112.098 1828.53C96.697 1804.8 81.8032 1780.8 68.73 1755.64C54.642 1728.54 41.927 1700.87 30.7939 1672.39C13.572 1628.33 0.0212517 1583.14 -11.2611 1537.3C-17.2604 1512.91 -21.26 1487.96 -23.1403 1462.79C-22.9613 1450.73 -25.558 1439 -27.1697 1427.09C-27.2593 1425.72 -27.3488 1424.38 -27.4384 1423.01C-32.5423 1370.89 -32.6617 1318.56 -31.1693 1266.45C-30.3037 1235.67 -27.6473 1204.54 -21.5584 1174.01C-20.2451 1167.38 -19.7974 1160.46 -18.9319 1153.65C-13.0519 1129.2 -9.50007 1104.22 -2.87395 1079.95C7.09509 1043.54 18.4669 1007.57 32.4057 972.469C35.0323 965.843 38.1662 959.306 41.3898 952.858C51.6871 936.859 59.537 919.428 68.3121 902.623C80.9077 878.535 95.8911 855.94 111.442 834.001C136.424 798.749 165.674 766.811 196.984 736.933C226.563 708.726 259.007 684.489 293.66 662.58C319.329 646.342 346.012 632.134 373.472 620.075C405.916 605.837 439.614 594.465 474.595 586.824C495.787 582.197 516.889 577.212 538.349 574.168C579.061 568.347 619.952 566.467 661.141 568.288C689.825 569.541 718.299 572.287 746.505 577.272C759.339 579.54 772.472 580.824 784.829 585.331C793.276 588.406 798.828 581.6 803.424 577.72C831.093 554.109 862.283 535.782 893.862 518.589C915.859 506.62 939.319 497.188 962.929 487.696C1188.04 397.225 1401.12 468.085 1501.94 513.933V513.993Z" stroke="url(#paint4_linear_2566_3662)" stroke-opacity="0.05" stroke-width="1.3" stroke-miterlimit="10"/>
<path d="M313.263 1229.39C313.263 1228.4 313.293 1227.39 313.323 1226.4C316.541 1210.38 319.641 1194.35 323.008 1178.36C334.123 1125.51 354.178 1076.15 381.773 1029.84C394.736 1012.92 405.672 994.535 419.559 978.272C437.797 956.965 457.256 937.031 479.516 919.783C509.525 896.536 541.917 877.617 577.319 864.039C601.814 854.639 626.965 847.506 653.01 842.971C680.754 838.136 708.527 835.6 736.509 836.435C772.507 837.539 808.088 842.135 842.596 853.236C848.556 855.146 854.516 856.847 860.089 851.833C880.203 833.69 902.047 817.874 924.933 803.46C957.981 783.884 993.264 769.71 1030.39 760.011C1066.12 750.701 1102.51 746.433 1139.31 747.06C1195.93 748.015 1250.44 759.415 1302.64 781.676C1352.41 802.894 1396.72 832.108 1436.45 868.903C1484.39 913.307 1521.37 965.38 1550.19 1023.78C1562.11 1047.89 1570.37 1073.35 1579.84 1098.35C1584.4 1117.12 1590.72 1135.42 1594.53 1154.4C1601.92 1191.07 1607.97 1227.87 1609.88 1265.38C1611.04 1288.18 1611.13 1310.94 1610.89 1333.71C1610.6 1362.93 1608.72 1391.99 1604.55 1421.03C1600.22 1451.02 1594.35 1480.59 1586.31 1509.72C1577.9 1540.1 1567.3 1569.7 1554.01 1598.29C1551.92 1602.76 1550.31 1607.45 1548.49 1612.04C1538.75 1630.96 1528.94 1649.85 1517.11 1667.61C1500.6 1692.35 1482.81 1716.01 1462.61 1737.98C1448.84 1752.96 1433.29 1766 1418.98 1780.32C1377.83 1814.19 1332.36 1840.54 1282.38 1859.07C1281.22 1859.49 1280.18 1860.18 1279.04 1860.74C1182.67 1893.06 1086.48 1893.84 990.641 1858.54C955.537 1845.61 923.234 1827.35 893.047 1805.36C887.653 1801.45 883.183 1800.34 876.806 1802.97C854.278 1812.22 830.885 1818.67 806.926 1823.02C804.512 1823.47 802.158 1824.34 799.804 1825.02C783.176 1827.68 766.339 1828.84 749.561 1829.23C668.297 1831.2 592.338 1812.46 523.113 1769.07C467.09 1733.95 423.016 1686.95 388.24 1630.99C382.876 1622.37 377.959 1613.48 372.833 1604.67C361.509 1581.34 350.811 1557.73 342.288 1533.2C333.944 1509.15 327.538 1484.53 320.922 1460C319.909 1456.24 319.79 1452.21 319.253 1448.3C317.108 1440.01 316.303 1431.47 314.813 1423.06C312.995 1419.24 313.621 1415.09 313.323 1411.09C311.833 1393.22 310.373 1375.34 308.883 1357.47C307.512 1355.17 308.168 1352.63 308.168 1350.22C308.108 1326.25 308.108 1302.29 308.168 1278.33C308.168 1275.91 307.482 1273.37 308.883 1271.08C310.164 1263.56 310.105 1255.89 310.879 1248.31C311.535 1241.98 312.697 1235.71 313.263 1229.39Z" stroke="url(#paint5_linear_2566_3662)" stroke-opacity="0.5" stroke-width="1.3" stroke-miterlimit="10"/>
<path d="M380.033 1167.94C386.754 1149.02 392.46 1129.73 400.645 1111.34C409.815 1090.71 419.494 1070.32 432.249 1051.57C446.11 1031.86 460.807 1012.82 477.148 995.085C488.977 982.258 502.031 970.835 515.952 960.43C543.315 939.947 572.739 923.083 605.15 911.81C636.726 900.836 669.137 894.168 702.534 891.776C727.717 889.952 752.63 891.507 777.484 894.826C805.444 898.564 832.389 906.248 858.378 917.162C865.428 920.123 870.178 919.764 874.957 913.215C879.617 906.876 887.235 903.139 891.716 896.381C906.771 881.43 923.918 869.051 941.573 857.479C970.459 838.552 1001.83 824.827 1035.07 815.588C1061.48 808.262 1088.28 803.328 1115.79 802.312C1159.64 800.667 1202.63 805.451 1244.57 818.608C1282.06 830.359 1317.13 847.044 1349.66 869.111C1387.6 894.886 1420.75 925.924 1448.57 962.224C1480.8 1004.32 1506.04 1050.43 1522.59 1101.03C1526.14 1111.88 1529.7 1122.73 1533.25 1133.62C1540.87 1165.49 1548.22 1197.4 1551.83 1230.08C1557.12 1278.04 1558.85 1325.94 1554.64 1374.17C1550.94 1416.63 1543.89 1458.32 1532.45 1499.28C1527.64 1516.44 1521.13 1533.16 1515.39 1550.05C1507.18 1573.23 1495.91 1594.9 1484.05 1616.37C1472.28 1637.66 1457.38 1656.83 1443.67 1676.8C1435.99 1685.57 1428.52 1694.54 1420.61 1703.09C1392.23 1733.8 1359.49 1758.97 1323.28 1779.75C1320.05 1781.61 1317.01 1783.76 1313.87 1785.76C1275.04 1805.56 1234.44 1820.12 1191.13 1826.07C1086.48 1840.45 992.415 1815.46 909.729 1749.2C907.608 1747.49 904.979 1746.12 903.396 1744.02C896.406 1734.6 888.818 1735.89 879.737 1741.15C866.802 1748.63 852.673 1753.62 838.483 1758.26C835.675 1759.18 833.046 1760.62 830.328 1761.81C810.463 1766.33 790.658 1771.32 770.285 1772.94C701.907 1778.35 636.427 1768.18 575.189 1735.98C489.395 1690.86 433.833 1619.63 398.822 1530.86C392.997 1516.09 388.248 1500.9 383.02 1485.88C379.585 1470.16 376.03 1454.46 372.774 1438.7C368.323 1417.32 366.321 1395.58 363.663 1373.93C363.155 1358.8 362.527 1343.7 362.169 1328.57C361.183 1286.77 364.529 1245.33 371.698 1204.13C373.819 1191.9 376.179 1179.79 380.033 1167.97V1167.94Z" stroke="url(#paint6_linear_2566_3662)" stroke-opacity="0.5" stroke-width="1.3" stroke-miterlimit="10"/>
<path d="M1315.53 1717.65C1288.57 1734.68 1260.39 1749.11 1229.81 1758.57C1222.29 1760.9 1214.74 1763.07 1207.19 1765.34C1202.29 1766.35 1197.38 1767.37 1192.48 1768.41C1182.64 1770.65 1172.68 1771.96 1162.67 1772.77C1132.53 1773.27 1102.48 1773.54 1072.73 1767.01C1020.95 1755.68 975.12 1732.8 935.47 1697.51C924.741 1687.97 914.13 1678.34 905.035 1667.18C902.598 1664.2 899.804 1662.65 896.118 1665.36C866.366 1687.49 833.048 1702.08 797.411 1711.62C789.296 1711.74 781.806 1715.14 773.9 1716.3C746.14 1719.35 718.409 1719.56 690.797 1714.72C661.61 1709.77 633.492 1701.39 606.95 1688.18C558.652 1664.14 520.369 1628.7 490.231 1584.11C488.418 1581.46 486.427 1578.92 484.524 1576.33C479.561 1566.93 474.567 1557.6 469.663 1548.17C451.295 1512.8 438.99 1475.33 430.816 1436.38C428.736 1426.51 425.02 1416.96 425.11 1406.64C423.623 1385.2 420.443 1363.87 419.908 1342.34C419.284 1318.12 417.857 1293.93 420.74 1269.74C422.999 1262.31 422.613 1254.56 423.623 1246.95C428.379 1211.25 435.869 1176.2 448.917 1142.53C451.414 1136.09 454.772 1130 457.745 1123.77C466.126 1108.05 474.597 1092.36 484.406 1077.42C499.772 1054.06 518.527 1033.78 539.273 1015.29C570.154 987.757 606.296 969.593 645.738 958.557C679.294 949.161 713.742 946.477 748.607 949.012C783.798 951.577 817.384 959.929 849.246 975.081C858.163 979.316 866.901 983.999 875.64 988.682C878.463 990.203 881.346 991.515 883.724 988.741C894.275 976.304 904.589 963.717 915.022 951.189C931.636 935.62 948.489 920.378 967.57 907.762C1009.12 880.291 1054.75 864.931 1104.11 860.367C1178.63 853.507 1246.87 872.715 1309.44 912.385C1340.44 932.041 1367.63 956.648 1391.26 985.073C1421.46 1021.43 1444.64 1061.88 1461.58 1105.87C1478.23 1149.06 1488.9 1193.83 1493.83 1239.94C1496.39 1272.57 1497.52 1305.23 1496.78 1337.95C1496.03 1370.94 1493.18 1403.78 1486.76 1436.17C1480.9 1465.61 1472.17 1494.3 1462.65 1522.73C1456.71 1535.2 1452.64 1548.47 1446.37 1560.85C1437.42 1578.48 1428.35 1596.01 1417.09 1612.3C1414.56 1615.94 1411.92 1619.55 1410.58 1623.87C1396.08 1641.98 1381.6 1660.14 1365.05 1676.49C1349.71 1691.64 1332.47 1704.43 1315.56 1717.65H1315.53Z" stroke="url(#paint7_linear_2566_3662)" stroke-opacity="0.5" stroke-width="1.3" stroke-miterlimit="10"/>
<path d="M1319.94 1642.51C1295.88 1665.48 1267.73 1682.2 1237.84 1696.22C1206.7 1708.87 1174.45 1716.56 1140.76 1716.98C1078.45 1717.75 1023.19 1698.44 975.278 1658.27C951.069 1638 931.254 1613.96 913.471 1588.03C907.134 1578.79 906.626 1578.49 898.856 1586.89C878.204 1609.23 853.756 1626.46 827.216 1640.93C717.679 1690.6 587.937 1648.62 522.962 1536.53C516.955 1523.76 510.469 1511.2 505 1498.22C487.546 1457.02 478.072 1413.8 473.708 1369.36C473.26 1346.76 471.526 1324.21 472.124 1301.57C473.768 1239.61 485.753 1180.22 515.58 1125.22C517.344 1121.96 519.436 1118.85 521.378 1115.68C533.722 1096.33 548.008 1078.63 564.595 1062.69C595.409 1033.09 631.932 1014.99 673.654 1006.41C716.005 997.709 757.728 999.563 798.673 1013.02C831.878 1023.94 861.526 1041.37 887.02 1065.56C893.237 1071.48 895.12 1071.33 899.334 1063.98C911.109 1043.46 924.26 1023.88 939.263 1005.6C947.124 996.034 956.12 987.392 964.608 978.331C981.584 959.969 1002.45 946.96 1024.74 936.374C1082.15 909.071 1141.66 905.303 1202.69 922.08C1259.75 937.78 1306.79 969.21 1345.55 1013.47C1381.15 1054.14 1405.57 1100.88 1421.08 1152.5C1422.36 1156.74 1424.25 1160.84 1425.83 1165C1426.64 1178.99 1431.84 1192.09 1434.35 1205.76C1442.75 1251.15 1445.11 1296.97 1443.55 1342.96C1442.18 1384.05 1435.27 1424.42 1424.51 1464.07C1418.33 1486.89 1408.52 1508.42 1400.46 1530.58C1392.42 1544.49 1385.93 1559.23 1377.32 1572.87C1362.98 1595.56 1346.45 1616.47 1326.9 1634.92C1324.39 1637.28 1322.21 1640 1319.85 1642.54L1319.94 1642.51Z" stroke="url(#paint8_linear_2566_3662)" stroke-opacity="0.6" stroke-width="1.3" stroke-miterlimit="10"/>
<path d="M532.068 1261.92C532.905 1258.56 534.042 1255.24 534.49 1251.85C539.575 1212.74 552.196 1176.26 572.444 1142.41C576.033 1139.92 577.947 1136.06 580.43 1132.64C599.182 1106.86 622.152 1086.4 651.821 1073.55C696.684 1054.11 742.174 1053.36 787.845 1068.82C822.329 1080.5 849.935 1102.84 873.772 1129.98C883.432 1141 892.644 1152.44 902.215 1163.56C907.329 1169.49 909.064 1169.28 913.012 1162.72C925.214 1142.47 935.204 1121.08 946.15 1100.18C950.517 1091.82 984.762 1039.55 1000.49 1024.1C1045.54 979.859 1099.64 962.726 1161.61 971.023C1219.33 978.751 1266.08 1006.97 1304.66 1050.22C1326.82 1075.08 1343.69 1102.87 1356.7 1133.3C1358.47 1137.41 1360.59 1141.39 1362.54 1145.4C1368.19 1164.75 1374.71 1183.8 1379.05 1203.54C1384.91 1230.11 1387.33 1257.04 1389.75 1284.08C1392 1308.79 1390.86 1333.41 1389.12 1357.88C1385.92 1402.48 1377.1 1446.09 1360.29 1487.79C1358.35 1492.64 1356.76 1497.61 1355.03 1502.55C1350.12 1511.72 1345.1 1520.82 1340.34 1530.08C1325.9 1558.17 1306.58 1582.47 1283.28 1603.7C1281.63 1605.2 1280.32 1607.03 1278.82 1608.7C1245.32 1636.32 1208 1656.03 1164.48 1661.3C1102.57 1668.82 1048.38 1651.45 1002.95 1608.25C977.464 1584.02 958.353 1554.94 940.228 1525.08C933.14 1513.4 926.59 1501.36 918.425 1490.33C913.161 1483.2 912.354 1482.91 907 1490.42C895.186 1507.05 883.522 1523.82 870.153 1539.25C862.347 1548.26 853.853 1556.68 845.658 1565.33C823.406 1584.47 798.492 1598.79 769.391 1604.06C714.12 1614.1 664.024 1602.05 620.477 1566.14C584.348 1536.34 562.724 1496.92 548.577 1453.04C543.702 1437.98 537.152 1423.24 536.494 1407.01C534.49 1387.06 530.871 1367.29 529.944 1347.16C529.047 1327.57 528.269 1308.01 530.183 1288.49C531.051 1279.62 529.107 1270.6 532.068 1261.92Z" stroke="url(#paint9_linear_2566_3662)" stroke-opacity="0.6" stroke-width="1.3" stroke-miterlimit="10"/>
<path d="M590.82 1242.94C595.709 1229.29 598.303 1214.92 604.027 1201.51C609.96 1187.58 617.533 1174.74 626.566 1162.66C639.774 1147.67 654.114 1134.31 672.807 1126.08C700.474 1113.89 728.797 1112.34 757.895 1119.4C790.332 1127.3 813.438 1148.68 834.814 1172.65C848.976 1188.51 860.514 1206.72 877.15 1220.38C895.276 1235.25 922.615 1234.03 939.818 1218.02C947.569 1210.81 953.443 1202.28 958.69 1193.28C971.808 1170.8 983.465 1147.55 994.377 1123.94C1011.58 1093.74 1030.99 1065 1061.1 1046.37C1102.36 1020.85 1146.19 1020.67 1190.34 1038.29C1233.63 1055.58 1264.31 1087.3 1287.44 1126.83C1310.61 1166.39 1322.62 1209.59 1327.93 1254.87C1329.09 1277.59 1331.27 1300.21 1330.97 1323.02C1330.41 1368.33 1324.12 1412.63 1308.88 1455.5C1307.63 1458.99 1306.64 1462.57 1305.54 1466.12C1295.91 1487.46 1286.31 1508.75 1272.48 1527.92C1262.88 1541.21 1250.83 1552.18 1240.01 1564.29C1216.52 1584.62 1190.01 1598.81 1159.07 1603.91C1114.61 1611.24 1075.98 1599.17 1042.17 1569.71C1026.9 1556.42 1014.47 1540.89 1003.29 1524.19C984.24 1493.31 968.648 1460.04 942.263 1434.16C929.979 1422.11 915.222 1418.42 898.466 1422.14C890.357 1423.96 883.828 1428.73 878.461 1434.46C864.777 1449.12 852.643 1465.07 842.387 1482.39C829.418 1499.3 816.27 1516.08 798.919 1528.87C762.367 1555.82 723.013 1556.63 682.795 1539.36C644.931 1523.12 623.108 1491.58 607.545 1455.09C598.869 1434.78 593.414 1413.44 589.448 1391.74C587.958 1376.86 586.467 1361.98 584.947 1347.11C583.337 1331.67 584.499 1316.16 584.32 1300.69C584.261 1294.85 583.307 1288.91 585.006 1283.13C586.378 1272.7 586.735 1262.14 589.419 1251.89C589.538 1248.82 589.419 1245.75 590.909 1242.92L590.82 1242.94Z" stroke="url(#paint10_linear_2566_3662)" stroke-opacity="0.7" stroke-width="1.3" stroke-miterlimit="10"/>
<defs>
<linearGradient id="paint0_linear_2566_3662" x1="959" y1="690" x2="959" y2="1941" gradientUnits="userSpaceOnUse">
<stop stop-color="#97FCE4"/>
<stop offset="1" stop-color="#5A9688"/>
</linearGradient>
<linearGradient id="paint1_linear_2566_3662" x1="958.5" y1="634" x2="958.5" y2="1999" gradientUnits="userSpaceOnUse">
<stop stop-color="#97FCE4"/>
<stop offset="1" stop-color="#5A9688"/>
</linearGradient>
<linearGradient id="paint2_linear_2566_3662" x1="957.5" y1="569" x2="957.5" y2="2064" gradientUnits="userSpaceOnUse">
<stop stop-color="#97FCE4"/>
<stop offset="1" stop-color="#5A9688"/>
</linearGradient>
<linearGradient id="paint3_linear_2566_3662" x1="958" y1="508" x2="958" y2="2124" gradientUnits="userSpaceOnUse">
<stop stop-color="#97FCE4"/>
<stop offset="1" stop-color="#5A9688"/>
</linearGradient>
<linearGradient id="paint4_linear_2566_3662" x1="958" y1="444" x2="958" y2="2188" gradientUnits="userSpaceOnUse">
<stop stop-color="#97FCE4"/>
<stop offset="1" stop-color="#5A9688"/>
</linearGradient>
<linearGradient id="paint5_linear_2566_3662" x1="959.5" y1="747" x2="959.5" y2="1885" gradientUnits="userSpaceOnUse">
<stop stop-color="#97FCE4"/>
<stop offset="1" stop-color="#5A9688"/>
</linearGradient>
<linearGradient id="paint6_linear_2566_3662" x1="959.5" y1="802" x2="959.5" y2="1830" gradientUnits="userSpaceOnUse">
<stop stop-color="#97FCE4"/>
<stop offset="1" stop-color="#5A9688"/>
</linearGradient>
<linearGradient id="paint7_linear_2566_3662" x1="958" y1="859" x2="958" y2="1773" gradientUnits="userSpaceOnUse">
<stop stop-color="#97FCE4"/>
<stop offset="1" stop-color="#5A9688"/>
</linearGradient>
<linearGradient id="paint8_linear_2566_3662" x1="958" y1="912" x2="958" y2="1717" gradientUnits="userSpaceOnUse">
<stop stop-color="#97FCE4"/>
<stop offset="1" stop-color="#5A9688"/>
</linearGradient>
<linearGradient id="paint9_linear_2566_3662" x1="960" y1="969" x2="960" y2="1663" gradientUnits="userSpaceOnUse">
<stop stop-color="#97FCE4"/>
<stop offset="1" stop-color="#5A9688"/>
</linearGradient>
<linearGradient id="paint10_linear_2566_3662" x1="957.5" y1="1026" x2="957.5" y2="1606" gradientUnits="userSpaceOnUse">
<stop stop-color="#97FCE4"/>
<stop offset="1" stop-color="#5A9688"/>
</linearGradient>
</defs>
</svg>
