<svg width="144" height="144" viewBox="0 0 144 144" fill="none" xmlns="http://www.w3.org/2000/svg">
<path opacity="0.2" d="M72.0164 118.214C94.6691 118.214 113.033 97.347 113.033 71.6068C113.033 45.8666 94.6691 25 72.0164 25C49.3637 25 31 45.8666 31 71.6068C31 97.347 49.3637 118.214 72.0164 118.214Z" stroke="#33998C" stroke-miterlimit="10"/>
<path opacity="0.4" d="M72.016 111.53C53.0879 111.53 37.688 93.6221 37.688 71.6118C37.688 49.6015 53.0879 31.6934 72.016 31.6934C90.9441 31.6934 106.344 49.6015 106.344 71.6118C106.344 93.6221 90.9441 111.53 72.016 111.53Z" stroke="#33998C" stroke-miterlimit="10"/>
<path opacity="0.6" d="M72.0161 104.843C56.7778 104.843 44.3765 89.9334 44.3765 71.6129C44.3765 53.2923 56.7778 38.3828 72.0161 38.3828C87.2545 38.3828 99.6558 53.2923 99.6558 71.6129C99.6558 89.9334 87.2545 104.843 72.0161 104.843Z" stroke="#33998C" stroke-miterlimit="10"/>
<path d="M72.0162 98.1488C83.5873 98.1488 92.9676 86.2657 92.9676 71.6071C92.9676 56.9485 83.5873 45.0654 72.0162 45.0654C60.4451 45.0654 51.0649 56.9485 51.0649 71.6071C51.0649 86.2657 60.4451 98.1488 72.0162 98.1488Z" stroke="#33998C" stroke-miterlimit="10"/>
</svg>
